<?xml version="1.0" encoding="iso-8859-1"?>
<!-- Generator: Adobe Illustrator 19.0.0, SVG Export Plug-In . SVG Version: 6.00 Build 0)  -->
<svg xmlns="http://www.w3.org/2000/svg" xmlns:xlink="http://www.w3.org/1999/xlink" version="1.1" id="Layer_1" x="0px" y="0px" viewBox="0 0 512 512" style="enable-background:new 0 0 512 512;" xml:space="preserve">
<g>
	<g>
		<g>
			<path d="M448,10.667C448,4.771,443.229,0,437.333,0H106.667C83.135,0,64,19.135,64,42.667v426.667     C64,492.865,83.135,512,106.667,512h330.667c3.938,0,7.552-2.167,9.406-5.635c1.854-3.469,1.646-7.677-0.531-10.948     c-10.563-15.844-10.563-36.323,0-52.167l-0.161-0.108c1.133-1.694,1.953-3.615,1.953-5.809V10.667z M420.375,490.667H106.667     c-11.76,0-21.333-9.573-21.333-21.333c0-11.76,9.573-21.333,21.333-21.333h313.967     C416.047,461.874,415.796,476.794,420.375,490.667z M426.667,426.667h-320c-7.76,0-15.052,2.083-21.333,5.729V42.667     c0-11.76,9.573-21.333,21.333-21.333h320V426.667z"/>
			<path d="M170.667,245.115v64.219c0,17.646,14.354,32,32,32h106.667c17.646,0,32-14.354,32-32v-64.219     c13.292-10.021,21.333-25.771,21.333-42.448c0-32.642-30.615-58.119-63.12-51.938C289.885,137.025,274.004,128,256,128     c-18.005,0-33.888,9.026-43.549,22.732c-32.549-6.19-63.126,19.29-63.117,51.935     C149.333,219.344,157.375,235.094,170.667,245.115z M320,309.333c0,5.885-4.781,10.667-10.667,10.667H202.667     c-5.885,0-10.667-4.781-10.667-10.667v-10.667h128V309.333z M203.728,170.845c-0.68,3.395-1.061,6.897-1.061,10.488     c0,5.896,4.771,10.667,10.667,10.667c5.896,0,10.667-4.771,10.667-10.667c0-17.646,14.354-32,32-32s32,14.354,32,32     c0,5.896,4.771,10.667,10.667,10.667c5.896,0,10.667-4.771,10.667-10.667c0-3.59-0.381-7.091-1.061-10.484     c18.083-0.893,33.07,13.839,33.061,31.818c0,11.396-5.99,21.688-16.031,27.531c-3.281,1.917-5.302,5.427-5.302,9.219v37.917H192     v-37.917c0-3.792-2.021-7.302-5.302-9.219c-10.042-5.844-16.031-16.135-16.031-27.531     C170.667,184.685,185.629,169.943,203.728,170.845z"/>
		</g>
	</g>
</g>
<g>
</g>
<g>
</g>
<g>
</g>
<g>
</g>
<g>
</g>
<g>
</g>
<g>
</g>
<g>
</g>
<g>
</g>
<g>
</g>
<g>
</g>
<g>
</g>
<g>
</g>
<g>
</g>
<g>
</g>
</svg>
