<?xml version="1.0" encoding="iso-8859-1"?>
<!-- Generator: Adobe Illustrator 19.0.0, SVG Export Plug-In . SVG Version: 6.00 Build 0)  -->
<svg xmlns="http://www.w3.org/2000/svg" xmlns:xlink="http://www.w3.org/1999/xlink" version="1.1" id="Layer_1" x="0px" y="0px" viewBox="0 0 512 512" style="enable-background:new 0 0 512 512;" xml:space="preserve">
<g>
	<g>
		<g>
			<path d="M149.333,405.333H160c5.896,0,10.667-4.771,10.667-10.667S165.896,384,160,384h-10.667     C137.563,384,128,374.427,128,362.667V352c0-5.896-4.771-10.667-10.667-10.667c-5.896,0-10.667,4.771-10.667,10.667v10.667     C106.667,386.198,125.813,405.333,149.333,405.333z"/>
			<path d="M490.667,192H448v-10.667c0-41.167-33.5-74.667-74.667-74.667h-87.298C287.23,103.314,288,99.758,288,96     c0-17.646-14.354-32-32-32s-32,14.354-32,32c0,3.758,0.77,7.314,1.965,10.667h-87.298C97.5,106.667,64,140.167,64,181.333V192     H21.333C9.563,192,0,201.573,0,213.333v9.167c0,17.875,8.875,34.458,23.75,44.375L64,293.708v79.625     C64,414.5,97.5,448,138.667,448h234.667C414.5,448,448,414.5,448,373.333v-79.625l40.25-26.833     c14.875-9.917,23.75-26.5,23.75-44.375v-9.167C512,201.573,502.438,192,490.667,192z M64,268.069l-28.417-18.944     c-8.917-5.948-14.25-15.906-14.25-26.625v-9.167H64V268.069z M256,85.333c5.875,0,10.667,4.781,10.667,10.667     s-4.792,10.667-10.667,10.667S245.333,101.885,245.333,96S250.125,85.333,256,85.333z M138.667,128h234.667     c25.763,0,47.299,18.353,52.255,42.667H86.411C91.367,146.353,112.904,128,138.667,128z M426.667,373.333     c0,29.406-23.917,53.333-53.333,53.333H138.667c-29.417,0-53.333-23.927-53.333-53.333V192h341.333V373.333z M490.667,222.5     c0,10.719-5.333,20.677-14.25,26.625L448,268.069v-54.736h42.667V222.5z"/>
		</g>
	</g>
</g>
<g>
</g>
<g>
</g>
<g>
</g>
<g>
</g>
<g>
</g>
<g>
</g>
<g>
</g>
<g>
</g>
<g>
</g>
<g>
</g>
<g>
</g>
<g>
</g>
<g>
</g>
<g>
</g>
<g>
</g>
</svg>
