<svg id="Capa_1" enable-background="new 0 0 512 512" height="512" viewBox="0 0 512 512" width="512" xmlns="http://www.w3.org/2000/svg"><g><path d="m284.302 80.424v-25.974c14.993-.023 27.184-12.226 27.184-27.224 0-15.013-12.214-27.226-27.226-27.226h-56.52c-15.012 0-27.226 12.213-27.226 27.226 0 14.998 12.191 27.201 27.184 27.224v25.974c-104.561 13.555-188.403 103.029-188.403 214.871 0 119.767 96.922 216.705 216.705 216.705 119.767 0 216.705-96.922 216.705-216.705 0-111.824-83.809-201.312-188.403-214.871zm-63.788-53.198c0-3.984 3.241-7.226 7.226-7.226h56.521c3.984 0 7.226 3.241 7.226 7.226 0 3.984-3.241 7.225-7.226 7.225-11.97 0-44.775 0-56.521 0-3.985 0-7.226-3.242-7.226-7.225zm27.184 51.528v-24.303h16.604v24.304c-5.875-.23-11.412-.204-16.604-.001zm8.302 413.246c-108.463 0-196.705-88.241-196.705-196.705 0-109.832 90.63-199.178 201.269-196.647 106.572 2.555 192.14 89.814 192.14 196.647.001 108.464-88.241 196.705-196.704 196.705z"/><path d="m236.573 125.388c-5.488.621-9.433 5.573-8.812 11.061.621 5.487 5.57 9.441 11.061 8.812 90.14-10.201 168.178 60.537 168.178 150.034 0 83.262-67.738 151-151 151s-151-67.738-151-151c0-48.567 23.6-94.479 63.13-122.815 4.489-3.217 5.519-9.465 2.301-13.954s-9.464-5.519-13.954-2.301c-44.756 32.083-71.477 84.071-71.477 139.07 0 94.29 76.71 171 171 171s171-76.71 171-171c0-101.645-88.647-181.421-190.427-169.907z"/><path d="m246 257.53c-16.712 4.429-29.068 19.679-29.068 37.765 0 21.542 17.526 39.068 39.068 39.068s39.068-17.526 39.068-39.068c0-18.086-12.356-33.336-29.068-37.765v-56.841c0-5.523-4.477-10-10-10s-10 4.477-10 10zm29.068 37.765c0 10.514-8.554 19.068-19.068 19.068s-19.068-8.554-19.068-19.068 8.554-19.068 19.068-19.068 19.068 8.554 19.068 19.068z"/><path d="m125.272 278.414c-5.523 0-10 4.477-10 10s4.477 10 10 10h13.334c5.523 0 10-4.477 10-10s-4.477-10-10-10z"/><path d="m386.728 298.414c5.523 0 10-4.477 10-10s-4.477-10-10-10h-13.334c-5.523 0-10 4.477-10 10s4.477 10 10 10z"/><path d="m156.49 188.904c-3.905 3.905-3.905 10.237 0 14.143l9.429 9.429c3.905 3.905 10.237 3.905 14.143 0 3.905-3.905 3.905-10.237 0-14.143l-9.429-9.429c-3.905-3.905-10.237-3.905-14.143 0z"/><path d="m331.938 378.495 9.429 9.429c3.905 3.905 10.237 3.905 14.143 0 3.905-3.905 3.905-10.237 0-14.143l-9.429-9.429c-3.905-3.905-10.237-3.905-14.143 0-3.904 3.905-3.904 10.237 0 14.143z"/><path d="m256 181.02c5.523 0 10-4.477 10-10v-13.334c0-5.523-4.477-10-10-10s-10 4.477-10 10v13.334c0 5.523 4.477 10 10 10z"/><path d="m246 405.808v13.334c0 5.523 4.477 10 10 10s10-4.477 10-10v-13.334c0-5.523-4.477-10-10-10s-10 4.477-10 10z"/><path d="m346.081 212.475 9.429-9.429c3.905-3.905 3.905-10.237 0-14.143-3.905-3.905-10.237-3.905-14.143 0l-9.429 9.429c-3.905 3.905-3.905 10.237 0 14.143 3.905 3.905 10.238 3.905 14.143 0z"/><path d="m165.919 364.352-9.429 9.429c-3.905 3.905-3.905 10.237 0 14.143 3.905 3.905 10.237 3.905 14.143 0l9.429-9.429c3.905-3.905 3.905-10.237 0-14.143-3.906-3.905-10.238-3.905-14.143 0z"/><path d="m197.644 155.21c5.523 0 10-4.477 10-10s-4.477-10-10-10h-.025c-5.523 0-9.988 4.477-9.988 10s4.49 10 10.013 10z"/></g></svg>